<?xml version="1.0" encoding="utf-8"?>
<!-- Generator: Adobe Illustrator 21.0.2, SVG Export Plug-In . SVG Version: 6.00 Build 0)  -->
<svg version="1.1" id="Layer_2" xmlns="http://www.w3.org/2000/svg" xmlns:xlink="http://www.w3.org/1999/xlink" x="0px" y="0px"
	 viewBox="0 0 612 792" style="enable-background:new 0 0 612 792;" xml:space="preserve">
<style type="text/css">
	.st0{fill:#FFFFFF;}
	.st1{fill:#013754;}
	.st2{clip-path:url(#SVGID_2_);fill:#6488A0;}
	.st3{clip-path:url(#SVGID_2_);fill:#6388A0;}
	.st4{clip-path:url(#SVGID_2_);fill:#6287A0;}
	.st5{clip-path:url(#SVGID_2_);fill:#6187A0;}
	.st6{clip-path:url(#SVGID_2_);fill:#6086A0;}
	.st7{clip-path:url(#SVGID_2_);fill:#5E86A0;}
	.st8{clip-path:url(#SVGID_2_);fill:#5D85A0;}
	.st9{clip-path:url(#SVGID_2_);fill:#5C85A0;}
	.st10{clip-path:url(#SVGID_2_);fill:#5B85A0;}
	.st11{clip-path:url(#SVGID_2_);fill:#5A84A0;}
	.st12{clip-path:url(#SVGID_2_);fill:#5984A0;}
	.st13{clip-path:url(#SVGID_2_);fill:#5883A0;}
	.st14{clip-path:url(#SVGID_2_);fill:#5783A0;}
	.st15{clip-path:url(#SVGID_2_);fill:#5682A0;}
	.st16{clip-path:url(#SVGID_2_);fill:#5582A0;}
	.st17{clip-path:url(#SVGID_2_);fill:#5482A0;}
	.st18{clip-path:url(#SVGID_2_);fill:#5381A0;}
	.st19{clip-path:url(#SVGID_2_);fill:#5281A0;}
	.st20{clip-path:url(#SVGID_2_);fill:#5181A0;}
	.st21{clip-path:url(#SVGID_2_);fill:#5080A0;}
	.st22{clip-path:url(#SVGID_2_);fill:#4F80A0;}
	.st23{clip-path:url(#SVGID_2_);fill:#4E7FA0;}
	.st24{clip-path:url(#SVGID_2_);fill:#4D7FA0;}
	.st25{clip-path:url(#SVGID_2_);fill:#4C7EA0;}
	.st26{clip-path:url(#SVGID_2_);fill:#4B7EA0;}
	.st27{clip-path:url(#SVGID_2_);fill:#4A7EA0;}
	.st28{clip-path:url(#SVGID_2_);fill:#497DA0;}
	.st29{clip-path:url(#SVGID_2_);fill:#487DA0;}
	.st30{clip-path:url(#SVGID_2_);fill:#477DA0;}
	.st31{clip-path:url(#SVGID_2_);fill:#477CA0;}
	.st32{clip-path:url(#SVGID_2_);fill:#467CA0;}
	.st33{clip-path:url(#SVGID_2_);fill:#457CA0;}
	.st34{clip-path:url(#SVGID_2_);fill:#447BA0;}
	.st35{clip-path:url(#SVGID_2_);fill:#437BA0;}
	.st36{clip-path:url(#SVGID_2_);fill:#427BA0;}
	.st37{clip-path:url(#SVGID_2_);fill:#417AA0;}
	.st38{clip-path:url(#SVGID_2_);fill:#407AA0;}
	.st39{clip-path:url(#SVGID_2_);fill:#3F79A0;}
	.st40{clip-path:url(#SVGID_2_);fill:#3E79A0;}
	.st41{clip-path:url(#SVGID_2_);fill:#3D79A0;}
	.st42{clip-path:url(#SVGID_2_);fill:#3D78A0;}
	.st43{clip-path:url(#SVGID_2_);fill:#3C78A0;}
	.st44{clip-path:url(#SVGID_2_);fill:#3B78A0;}
	.st45{clip-path:url(#SVGID_2_);fill:#3A77A0;}
	.st46{clip-path:url(#SVGID_2_);fill:#3977A0;}
	.st47{clip-path:url(#SVGID_2_);fill:#3877A0;}
	.st48{clip-path:url(#SVGID_2_);fill:#3776A0;}
	.st49{clip-path:url(#SVGID_2_);fill:#3676A0;}
	.st50{clip-path:url(#SVGID_2_);fill:#3576A0;}
	.st51{clip-path:url(#SVGID_2_);fill:#3575A0;}
	.st52{clip-path:url(#SVGID_2_);fill:#3475A0;}
</style>
<g>
	<path class="st0" d="M436,566.2H176c-11,0-20-9-20-20V246.6c0-11,9-20,20-20h260c11,0,20,9,20,20v299.6
		C456,557.2,447,566.2,436,566.2z"/>
</g>
<g>
	<path class="st1" d="M168.9,558.7c-5,0-9.3-2.6-11.9-6c2.7,7.8,10.1,13.5,18.8,13.5h260.3c8.4,0,15.5-5.2,18.4-12.6
		c-2.9,3.1-7.4,5.1-11.5,5.1H168.9z"/>
</g>
<g>
	<path class="st1" d="M436.1,225.8H175.9c-10.9,0-19.9,8.9-19.9,19.9v300.2c0,1,0.1,2,0.3,3c1.8,4.9,7.6,8.4,12.7,8.4h274.1
		c4.6,0,10-2.8,12.4-6.9c0.3-1.4,0.5-2.9,0.5-4.5V245.6C456,234.7,447.1,225.8,436.1,225.8z"/>
</g>
<g>
	<g>
		<g>
			<defs>
				<path id="SVGID_1_" d="M176,546.6c-4.3,0-7-0.4-8.1-1.2c-0.9-0.7-1.9-3.4-1.9-8.8v-290c0-5.5,4.5-10,10-10h260
					c5.5,0,10,4.5,10,10v290c0,6.2-1.1,8.6-1.7,9c-1.3,1-6.2,1-8.3,1H176z"/>
			</defs>
			<clipPath id="SVGID_2_">
				<use xlink:href="#SVGID_1_"  style="overflow:visible;"/>
			</clipPath>
			<rect x="166" y="236.6" class="st2" width="280" height="0"/>
			<rect x="166" y="236.6" class="st2" width="280" height="4.6"/>
			<rect x="166" y="241.3" class="st3" width="280" height="4.6"/>
			<rect x="166" y="245.9" class="st4" width="280" height="4.6"/>
			<rect x="166" y="250.5" class="st5" width="280" height="4.6"/>
			<rect x="166" y="255.2" class="st6" width="280" height="4.6"/>
			<rect x="166" y="259.8" class="st7" width="280" height="4.6"/>
			<rect x="166" y="264.4" class="st8" width="280" height="4.6"/>
			<rect x="166" y="269" class="st9" width="280" height="4.6"/>
			<rect x="166" y="273.7" class="st10" width="280" height="4.6"/>
			<rect x="166" y="278.3" class="st11" width="280" height="4.6"/>
			<rect x="166" y="282.9" class="st12" width="280" height="4.6"/>
			<rect x="166" y="287.5" class="st13" width="280" height="4.6"/>
			<rect x="166" y="292.2" class="st14" width="280" height="4.6"/>
			<rect x="166" y="296.8" class="st15" width="280" height="4.6"/>
			<rect x="166" y="301.4" class="st16" width="280" height="4.6"/>
			<rect x="166" y="306" class="st17" width="280" height="4.6"/>
			<rect x="166" y="310.7" class="st18" width="280" height="4.6"/>
			<rect x="166" y="315.3" class="st19" width="280" height="4.6"/>
			<rect x="166" y="319.9" class="st20" width="280" height="4.6"/>
			<rect x="166" y="324.6" class="st21" width="280" height="4.6"/>
			<rect x="166" y="329.2" class="st22" width="280" height="4.6"/>
			<rect x="166" y="333.8" class="st23" width="280" height="4.6"/>
			<rect x="166" y="338.4" class="st24" width="280" height="4.6"/>
			<rect x="166" y="343.1" class="st24" width="280" height="4.6"/>
			<rect x="166" y="347.7" class="st25" width="280" height="4.6"/>
			<rect x="166" y="352.3" class="st26" width="280" height="4.6"/>
			<rect x="166" y="356.9" class="st27" width="280" height="4.6"/>
			<rect x="166" y="361.6" class="st28" width="280" height="4.6"/>
			<rect x="166" y="366.2" class="st29" width="280" height="4.6"/>
			<rect x="166" y="370.8" class="st30" width="280" height="4.6"/>
			<rect x="166" y="375.5" class="st31" width="280" height="4.6"/>
			<rect x="166" y="380.1" class="st32" width="280" height="4.6"/>
			<rect x="166" y="384.7" class="st33" width="280" height="4.6"/>
			<rect x="166" y="389.3" class="st34" width="280" height="4.6"/>
			<rect x="166" y="394" class="st35" width="280" height="4.6"/>
			<rect x="166" y="398.6" class="st35" width="280" height="4.6"/>
			<rect x="166" y="403.2" class="st36" width="280" height="4.6"/>
			<rect x="166" y="407.8" class="st37" width="280" height="4.6"/>
			<rect x="166" y="412.5" class="st37" width="280" height="4.6"/>
			<rect x="166" y="417.1" class="st38" width="280" height="4.6"/>
			<rect x="166" y="421.7" class="st39" width="280" height="4.6"/>
			<rect x="166" y="426.3" class="st39" width="280" height="4.6"/>
			<rect x="166" y="431" class="st40" width="280" height="4.6"/>
			<rect x="166" y="435.6" class="st41" width="280" height="4.6"/>
			<rect x="166" y="440.2" class="st42" width="280" height="4.6"/>
			<rect x="166" y="444.9" class="st43" width="280" height="4.6"/>
			<rect x="166" y="449.5" class="st44" width="280" height="4.6"/>
			<rect x="166" y="454.1" class="st44" width="280" height="4.6"/>
			<rect x="166" y="458.7" class="st45" width="280" height="4.6"/>
			<rect x="166" y="463.4" class="st45" width="280" height="4.6"/>
			<rect x="166" y="468" class="st46" width="280" height="4.6"/>
			<rect x="166" y="472.6" class="st46" width="280" height="4.6"/>
			<rect x="166" y="477.2" class="st47" width="280" height="4.6"/>
			<rect x="166" y="481.9" class="st47" width="280" height="4.6"/>
			<rect x="166" y="486.5" class="st48" width="280" height="4.6"/>
			<rect x="166" y="491.1" class="st48" width="280" height="4.6"/>
			<rect x="166" y="495.7" class="st48" width="280" height="4.6"/>
			<rect x="166" y="500.4" class="st49" width="280" height="4.6"/>
			<rect x="166" y="505" class="st49" width="280" height="4.6"/>
			<rect x="166" y="509.6" class="st50" width="280" height="4.6"/>
			<rect x="166" y="514.3" class="st51" width="280" height="4.6"/>
			<rect x="166" y="518.9" class="st51" width="280" height="4.6"/>
			<rect x="166" y="523.5" class="st51" width="280" height="4.6"/>
			<rect x="166" y="528.1" class="st52" width="280" height="4.6"/>
			<rect x="166" y="532.8" class="st52" width="280" height="4.6"/>
			<rect x="166" y="537.4" class="st52" width="280" height="4.6"/>
			<rect x="166" y="542" class="st52" width="280" height="4.6"/>
		</g>
	</g>
</g>
<g>
	<g>
		<defs>
			<path id="SVGID_3_" d="M446,536.6H166c0,5.4,1,8.1,1.9,8.8c1.1,0.8,3.8,1.2,8.1,1.2h260c2.1,0,6.9,0,8.3-1
				C444.9,545.2,446,542.8,446,536.6"/>
		</defs>
		<clipPath id="SVGID_4_">
			<use xlink:href="#SVGID_3_"  style="overflow:visible;"/>
		</clipPath>
		<g style="clip-path:url(#SVGID_4_);">
			
				<image style="overflow:visible;" width="587" height="23" xlink:href="291030E7F418D101.png"  transform="matrix(0.48 0 0 -0.48 165.12 547.2)">
			</image>
		</g>
	</g>
</g>
</svg>
